<?xml version="1.0" encoding="UTF-8" standalone="no"?>
<!-- Created with Inkscape (http://www.inkscape.org/) -->

<svg
   xmlns:dc="http://purl.org/dc/elements/1.1/"
   xmlns:cc="http://creativecommons.org/ns#"
   xmlns:rdf="http://www.w3.org/1999/02/22-rdf-syntax-ns#"
   xmlns:svg="http://www.w3.org/2000/svg"
   xmlns="http://www.w3.org/2000/svg"
   xmlns:xlink="http://www.w3.org/1999/xlink"
   xmlns:sodipodi="http://sodipodi.sourceforge.net/DTD/sodipodi-0.dtd"
   xmlns:inkscape="http://www.inkscape.org/namespaces/inkscape"
   width="234"
   height="234"
   id="svg2"
   version="1.1"
   inkscape:version="0.48.5 r10040"
   sodipodi:docname="New document 1">
  <defs
     id="defs4" />
  <sodipodi:namedview
     id="base"
     pagecolor="#ffffff"
     bordercolor="#666666"
     borderopacity="1.0"
     inkscape:pageopacity="0.0"
     inkscape:pageshadow="2"
     inkscape:zoom="0.98994949"
     inkscape:cx="97.096646"
     inkscape:cy="248.65396"
     inkscape:document-units="px"
     inkscape:current-layer="g3035"
     showgrid="false"
     fit-margin-top="0"
     fit-margin-left="0"
     fit-margin-right="0"
     fit-margin-bottom="0"
     inkscape:window-width="1600"
     inkscape:window-height="841"
     inkscape:window-x="-8"
     inkscape:window-y="-8"
     inkscape:window-maximized="1" />
  <metadata
     id="metadata7">
    <rdf:RDF>
      <cc:Work
         rdf:about="">
        <dc:format>image/svg+xml</dc:format>
        <dc:type
           rdf:resource="http://purl.org/dc/dcmitype/StillImage" />
        <dc:title></dc:title>
      </cc:Work>
    </rdf:RDF>
  </metadata>
  <g
     inkscape:label="Layer 1"
     inkscape:groupmode="layer"
     id="layer1"
     transform="translate(0,-818.36218)">
    <g
       style="overflow:visible"
       id="g3035"
       transform="translate(-2.7143,16.693324)">
      <g
         id="Layer_1"
         transform="translate(2.7143,800.14286)">
			<defs
   id="defs3018">
				<path
   d="m 9,201.026 v -165 c 0,-14.061 11.439,-25.5 25.5,-25.5 h 165 c 14.061,0 25.5,11.439 25.5,25.5 v 165 c 0,14.061 -11.439,25.5 -25.5,25.5 h -165 c -14.061,0 -25.5,-11.44 -25.5,-25.5 z"
   id="XMLID_1_"
   inkscape:connector-curvature="0" />

			</defs>

			<clipPath
   id="XMLID_3_">
				<use
   id="use3022"
   xlink:href="#XMLID_1_"
   x="0"
   y="0"
   width="1"
   height="1" />

			</clipPath>

			<path
   id="path3024"
   d="m 19.764,212.323 c 3.956,5.122 6.601,4.627 15.599,-3.305 3.604,-3.14 10.158,-8.705 14.581,-12.371 4.415,-3.736 12.827,-11.022 18.684,-16.296 17.03,-15.391 17.231,-15.562 19.812,-15.249 4.417,0.485 9.186,7.777 18.282,27.939 5.2,11.473 6.406,13.237 9.329,14.025 2.1,0.578 15.104,-2.454 23.604,-5.451 9.752,-3.494 11.055,-5.671 4.467,-7.383 -6.209,-1.612 -11.599,-5.124 -14.283,-9.211 -1.996,-3.067 -2.833,-9.679 -1.823,-13.935 0.742,-3.354 0.737,-3.423 -4.084,-9.836 -5.829,-7.696 -6.552,-14.608 -2.049,-20.975 2.286,-3.224 10.074,-8.116 14.696,-9.182 1.708,-0.394 3.51,-1.238 4.026,-1.878 0.837,-1.031 0.649,-1.447 -1.768,-3.675 -5.069,-4.639 -6.341,-6.326 -6.58,-8.63 -0.527,-5.771 0.896,-4.678 13.003,9.491 12.252,14.4 24.578,28.648 37.23,42.705 6.516,7.329 12.366,13.851 12.944,14.522 1.063,1.125 1.545,0.858 7.106,-4.459 31.242,-29.95 6.561,-98.333 -10.205,-114.404 -3.562,-3.414 -6.51,-6.532 -6.466,-6.825 -0.031,-0.288 4.922,-5.175 11.025,-10.835 10.558,-9.768 22.205,-20.96 34.077,-32.758 6.076,-5.948 6.154,-6.541 2.448,-11.392 -1.182,-1.553 -2.27,-2.896 -2.422,-2.953 -0.083,-0.135 -2.549,2.084 -5.381,4.929 -5.53,5.604 -20.995,19.96 -37.698,35.027 -9.786,8.743 -10.392,9.179 -11.526,8.123 C 154.005,27.257 112.504,5.593 82.444,23.457 77.236,26.552 65.56,36.066 65.674,37.152 c 0.037,0.359 2.449,3.236 5.324,6.359 24.877,26.96 44.057,48.183 44.127,48.83 0.024,0.217 -1.092,0.697 -2.431,1.125 -3.106,0.911 -10.124,-1.417 -21.43,-7.223 C 72.656,76.76 60.69,74.444 48.095,77.941 c -5.665,1.541 -8.41,3.138 -8.228,4.865 0.151,1.442 2.913,2.099 9.636,2.345 17.31,0.523 29.557,4.849 36.137,12.754 2.585,3.15 3.249,4.611 3.84,8.189 0.873,4.858 0.501,6.209 -3.984,14.832 -2.179,4.235 -2.941,6.714 -3.445,11.646 -0.883,8.246 -4.468,17.869 -8.716,23.189 -4.25,5.323 -17.194,17.306 -27.747,25.688 -17.337,13.825 -27.826,24.242 -27.497,27.409 0.083,0.791 0.827,2.316 1.673,3.465"
   clip-path="url(#XMLID_3_)"
   inkscape:connector-curvature="0" />

		</g>
      <g
         id="Layer_2_1_"
         transform="translate(2.7143,800.14286)">
			<path
   id="path3027"
   d="M 34.5,1.526 C 15.477,1.526 0,17.002 0,36.026 v 165 c 0,19.023 15.477,34.5 34.5,34.5 h 165 c 19.023,0 34.5,-15.477 34.5,-34.5 v -165 c 0,-19.023 -15.477,-34.5 -34.5,-34.5 H 34.5 z M 9,201.026 v -165 c 0,-14.061 11.439,-25.5 25.5,-25.5 h 165 c 14.061,0 25.5,11.439 25.5,25.5 v 165 c 0,14.061 -11.439,25.5 -25.5,25.5 h -165 c -14.061,0 -25.5,-11.44 -25.5,-25.5 z"
   inkscape:connector-curvature="0" />

		</g>
    </g>
  </g>
</svg>
