<?xml version="1.0" encoding="UTF-8" standalone="no"?>
<!-- Created with Inkscape (http://www.inkscape.org/) -->

<svg
   xmlns:dc="http://purl.org/dc/elements/1.1/"
   xmlns:cc="http://creativecommons.org/ns#"
   xmlns:rdf="http://www.w3.org/1999/02/22-rdf-syntax-ns#"
   xmlns:svg="http://www.w3.org/2000/svg"
   xmlns="http://www.w3.org/2000/svg"
   xmlns:xlink="http://www.w3.org/1999/xlink"
   xmlns:sodipodi="http://sodipodi.sourceforge.net/DTD/sodipodi-0.dtd"
   xmlns:inkscape="http://www.inkscape.org/namespaces/inkscape"
   width="234"
   height="234"
   id="svg3047"
   version="1.1"
   inkscape:version="0.48.5 r10040"
   sodipodi:docname="New document 2">
  <defs
     id="defs3049" />
  <sodipodi:namedview
     id="base"
     pagecolor="#ffffff"
     bordercolor="#666666"
     borderopacity="1.0"
     inkscape:pageopacity="0.0"
     inkscape:pageshadow="2"
     inkscape:zoom="0.35"
     inkscape:cx="375"
     inkscape:cy="520"
     inkscape:document-units="px"
     inkscape:current-layer="g3105"
     showgrid="false"
     fit-margin-top="0"
     fit-margin-left="0"
     fit-margin-right="0"
     fit-margin-bottom="0"
     inkscape:window-width="1600"
     inkscape:window-height="841"
     inkscape:window-x="-8"
     inkscape:window-y="-8"
     inkscape:window-maximized="1" />
  <metadata
     id="metadata3052">
    <rdf:RDF>
      <cc:Work
         rdf:about="">
        <dc:format>image/svg+xml</dc:format>
        <dc:type
           rdf:resource="http://purl.org/dc/dcmitype/StillImage" />
        <dc:title></dc:title>
      </cc:Work>
    </rdf:RDF>
  </metadata>
  <g
     inkscape:label="Layer 1"
     inkscape:groupmode="layer"
     id="layer1"
     transform="translate(0,-818.36218)">
    <g
       style="overflow:visible"
       id="g3105"
       transform="translate(-1617,391.17033)">
      <g
         id="Layer_1"
         transform="translate(1617,400.14285)">
			<defs
   id="defs3088">
				<path
   d="m 9,226.549 v -165 c 0,-14.061 11.439,-25.5 25.5,-25.5 h 165 c 14.061,0 25.5,11.439 25.5,25.5 v 165 c 0,14.061 -11.439,25.5 -25.5,25.5 h -165 c -14.061,0 -25.5,-11.44 -25.5,-25.5 z"
   id="XMLID_1_"
   inkscape:connector-curvature="0" />

			</defs>

			<clipPath
   id="XMLID_5_">
				<use
   id="use3092"
   xlink:href="#XMLID_1_"
   x="0"
   y="0"
   width="1"
   height="1" />

			</clipPath>

			<path
   id="path3094"
   d="m 26.818,246.16 c 2.746,2.617 6.455,3.318 8.933,1.66 1.628,-1.074 8.988,-9.265 32.557,-36.223 10.221,-11.784 13.482,-13.853 18.145,-11.93 2.858,1.281 5.217,4.93 15.394,24.575 10.571,20.269 12.14,22.675 15.204,22.694 3.817,0.11 11.575,-3.32 23.36,-10.228 6.556,-3.886 8.526,-5.66 8.316,-7.709 -0.215,-2.13 -2.838,-3.513 -7.866,-4.166 -8.039,-1.004 -14.228,-4.102 -16.82,-8.469 -0.897,-1.481 -2.392,-6.457 -3.274,-11.081 -1.337,-6.648 -2.403,-9.848 -5.252,-15.102 -2.045,-3.846 -3.793,-8.051 -3.985,-9.935 -0.605,-5.976 3.769,-11.794 10.21,-13.522 6.286,-1.63 7.152,-2.051 7.446,-3.234 0.179,-0.684 -0.521,-2.678 -1.594,-4.307 -1.085,-1.709 -2.053,-3.928 -2.161,-4.99 -0.248,-2.453 4.64,-8.078 21.631,-24.855 7.287,-7.273 13.514,-13.529 13.71,-14.047 0.207,-0.434 0.738,-0.899 1.066,-0.935 0.406,-0.043 7.754,7.154 16.495,15.858 10.07,10.226 20.426,20.123 30.608,30.234 2.022,2.025 4.343,3.693 5.081,3.62 2.131,-0.216 3.948,-9.997 3.312,-17.125 -1.062,-10.477 -5.302,-22.336 -12.579,-35.807 -7.339,-13.572 -2.695,-6.066 -12.57,-21.358 -2.297,-3.557 -5.234,-5.923 -5.258,-6.169 -0.028,-0.244 1.379,-1.876 3.188,-3.63 1.734,-1.661 9.893,-10.098 18.117,-18.709 13.163,-13.741 27.547,-28.515 42.852,-43.963 l 4.734,-4.697 -0.646,-6.385 c -0.581,-5.736 -1.505,-7.542 -2.604,-5.282 -0.746,1.568 -70.645,69.199 -74.785,72.43 -0.465,0.296 -2.679,-2.733 -6.375,-4.977 -14.495,-8.804 -10.117,-6.78 -20.432,-11.412 -19.781,-8.872 -34.264,-16.54 -46.781,-14.36 -2.684,0.438 -5.316,1.367 -5.763,1.904 -1.028,1.264 -2.807,-0.789 25.9,29.469 11.677,12.381 21.41,22.726 21.599,22.954 0.311,0.627 -33.89,31.226 -37.144,33.372 -3.884,2.465 -12.66,0.79 -20.498,-3.957 -8.106,-4.884 -15.869,-6.416 -26.915,-5.212 -14.242,1.527 -26.38,5.817 -26.029,9.259 0.218,2.129 2.632,2.297 11.971,0.601 9.905,-1.83 13.376,-1.853 19.905,-0.28 7.788,1.774 12.492,4.938 16.392,10.746 2.438,3.642 2.635,5.606 0.971,9.578 -0.652,1.719 -2.57,7.29 -4.108,12.496 -3.31,10.589 -6.029,15.582 -13.805,24.554 -2.958,3.443 -10.718,12.585 -17.298,20.279 -6.573,7.784 -14.92,17.642 -18.699,21.995 -5.909,6.969 -6.694,8.209 -6.437,10.746 0.184,1.8 1.11,3.61 2.581,5.032"
   clip-path="url(#XMLID_5_)"
   inkscape:connector-curvature="0" />

		</g>
      <g
         id="Layer_2_1_"
         transform="translate(1617,400.14285)">
			<path
   id="path3097"
   d="M 34.5,27.049 C 15.477,27.049 0,42.526 0,61.549 v 165 c 0,19.023 15.477,34.5 34.5,34.5 h 165 c 19.023,0 34.5,-15.477 34.5,-34.5 v -165 c 0,-19.023 -15.477,-34.5 -34.5,-34.5 H 34.5 z M 9,226.549 v -165 c 0,-14.061 11.439,-25.5 25.5,-25.5 h 165 c 14.061,0 25.5,11.439 25.5,25.5 v 165 c 0,14.061 -11.439,25.5 -25.5,25.5 h -165 c -14.061,0 -25.5,-11.44 -25.5,-25.5 z"
   inkscape:connector-curvature="0" />

		</g>
    </g>
  </g>
</svg>
