<?xml version="1.0" encoding="UTF-8" standalone="no"?>
<!-- Created with Inkscape (http://www.inkscape.org/) -->

<svg
   xmlns:dc="http://purl.org/dc/elements/1.1/"
   xmlns:cc="http://creativecommons.org/ns#"
   xmlns:rdf="http://www.w3.org/1999/02/22-rdf-syntax-ns#"
   xmlns:svg="http://www.w3.org/2000/svg"
   xmlns="http://www.w3.org/2000/svg"
   xmlns:xlink="http://www.w3.org/1999/xlink"
   xmlns:sodipodi="http://sodipodi.sourceforge.net/DTD/sodipodi-0.dtd"
   xmlns:inkscape="http://www.inkscape.org/namespaces/inkscape"
   width="234"
   height="234"
   id="svg3117"
   version="1.1"
   inkscape:version="0.48.5 r10040"
   sodipodi:docname="New document 3">
  <defs
     id="defs3119" />
  <sodipodi:namedview
     id="base"
     pagecolor="#ffffff"
     bordercolor="#666666"
     borderopacity="1.0"
     inkscape:pageopacity="0.0"
     inkscape:pageshadow="2"
     inkscape:zoom="0.35"
     inkscape:cx="375"
     inkscape:cy="519.99999"
     inkscape:document-units="px"
     inkscape:current-layer="Layer_1"
     showgrid="false"
     fit-margin-top="0"
     fit-margin-left="0"
     fit-margin-right="0"
     fit-margin-bottom="0"
     inkscape:window-width="1600"
     inkscape:window-height="841"
     inkscape:window-x="-8"
     inkscape:window-y="-8"
     inkscape:window-maximized="1" />
  <metadata
     id="metadata3122">
    <rdf:RDF>
      <cc:Work
         rdf:about="">
        <dc:format>image/svg+xml</dc:format>
        <dc:type
           rdf:resource="http://purl.org/dc/dcmitype/StillImage" />
        <dc:title></dc:title>
      </cc:Work>
    </rdf:RDF>
  </metadata>
  <g
     inkscape:label="Layer 1"
     inkscape:groupmode="layer"
     id="layer1"
     transform="translate(-2.6992188e-6,-818.36218)">
    <g
       id="Layer_1"
       transform="translate(69.642886,371.07647)">
			<g
   id="g3157"
   transform="matrix(0.91764706,0,0,0.92125984,-69.642886,447.28571)">
				<defs
   id="defs3159">
					<path
   d="m 241,218 c 0,11.046 -8.954,20 -20,20 H 37 C 25.954,238 17,229.046 17,218 V 34 C 17,22.954 25.954,14 37,14 h 184 c 11.046,0 20,8.954 20,20 v 184 z"
   id="XMLID_1_"
   inkscape:connector-curvature="0" />

				</defs>

				<clipPath
   id="XMLID_3_">
					<use
   id="use3163"
   xlink:href="#XMLID_1_"
   x="0"
   y="0"
   width="1"
   height="1" />

				</clipPath>

				<path
   id="path3165"
   d="m 101.325,25.452 c -1.194,1.868 0.121,4.651 0.753,6.479 7.387,21.357 23.365,40.368 35.87,58.916 1.318,2.024 0.914,1.674 -0.621,3.242 -30.623,31.311 -60.284,63.084 -88.782,96.122 -0.92,1.067 -1.9,2.097 -2.742,3.228 -0.873,1.347 -1.407,0.671 -2.652,0.658 -2.466,-0.027 -3.984,2.032 -4.01,4.462 -0.043,1.785 1.941,2.256 0.617,3.843 -2.138,2.553 -4.829,4.669 -7.013,7.18 -4.473,5.133 -5.72,8.05 -5.024,10.065 0.896,2.592 8.807,9.947 11.665,9.764 1.521,-0.099 3.519,-2.057 4.704,-3.042 3.752,-3.736 7.563,-7.406 11.439,-11.013 1.173,-0.889 2.67,0.508 3.763,1.057 26.021,13.151 51.3,18.267 80.728,9.393 0.964,-0.286 3.663,-0.595 3.93,-1.867 0.15,-0.708 -0.687,-2.278 0.066,-2.666 1.195,-0.612 2.546,-0.96 3.8,-1.416 14.393,-5.219 27.516,-16.572 36.629,-28.689 8.067,-10.726 13.604,-22.433 15.982,-35.684 4.378,-24.44 -0.385,-51.503 -13.165,-72.827 -0.233,-0.389 -1.047,-2.208 -1.191,-2.245 1.545,-1.661 0.751,-0.718 2.355,-2.402 14.201,-14.943 27.416,-30.905 41.913,-45.544 5.919,-5.979 4.025,-4.66 4.371,-5.44 0.478,-1.066 -1.357,-12.128 -1.595,-12.048 -0.968,0.337 -37.73,34.872 -53.124,47.85 0,0 -3.882,3.517 -4.016,3.381 C 160.263,50.222 143.341,35.906 121.56,28.72 118.069,27.567 102.78,23.2 101.325,25.452 m 54.203,89.205 c 7.56,8.905 10.591,22.156 11.451,33.497 0.848,11.49 -1.309,22.807 -6.118,33.264 -4.421,9.608 -10.697,18.04 -19.213,24.396 -21.437,16.028 -55.029,16.437 -78.214,3.204 -0.658,-0.375 -1.532,-0.257 -0.936,-1.12 17.905,-25.94 45.269,-48.152 67.66,-70.184 2.519,-2.476 23.903,-24.522 25.37,-23.057"
   clip-path="url(#XMLID_3_)"
   inkscape:connector-curvature="0" />

			</g>

			<g
   id="g3167"
   transform="matrix(0.91764706,0,0,0.92125984,-69.642886,447.28571)">
				<path
   id="path3169"
   d="m 45.994,9.191 c -19.023,0 -34.5,15.477 -34.5,34.5 v 165 c 0,19.023 15.477,34.5 34.5,34.5 h 165 c 19.023,0 34.5,-15.477 34.5,-34.5 v -165 c 0,-19.023 -15.477,-34.5 -34.5,-34.5 h -165 z m -25.5,199.5 v -165 c 0,-14.061 11.439,-25.5 25.5,-25.5 h 165 c 14.061,0 25.5,11.439 25.5,25.5 v 165 c 0,14.061 -11.439,25.5 -25.5,25.5 h -165 c -14.06,0 -25.5,-11.439 -25.5,-25.5 z"
   inkscape:connector-curvature="0" />

			</g>

			<rect
   id="rect3171"
   height="234"
   width="234"
   x="-69.642883"
   y="447.28571"
   style="fill:none" />
 
		</g>
  </g>
</svg>
